# xmcd CD database file
# Generated: Fri Jun 7 19:13:27 2002 by KSCD
# 
# Track frame offsets:
#       150
#       5433
#       6845
#       8689
#       11063
#       12907
#       14849
#       16575
#       18467
#       19972
#       21096
#       22539
#       24447
#       26138
#       27788
#       29575
#       35360
#       39410
#       43687
#       50284
#       51690
#       53505
#       61506
#       68853
#       70659
#       72519
#       81990
#       83895
#       85595
#       97989
#       100836
#       107989
#       114259
#       116838
#       119044
#       120381
#       121757
#       132014
#       139106
#       140644
#       142210
#       144423
#       149729
#       155261
#       156692
#       161964
#       164296
#       166071
#       168236
#       169774
#       177661
#       186158
#       188424
#       192807
#       194888
#       201965
#
# Disc length: 2751 seconds
#
# Revision: 4
# Processed by: cddbd v1.4PL0 Copyright (c) Steve Scherf et al.
# Submitted via: Kscd 1.3.3
#
DISCID=030abd38
DTITLE=Tony Trischka - Banjo For Beginners
DYEAR=1900
DGENRE=
TTITLE0=Tuning
TTITLE1=G Chord Strumming
TTITLE2=G and D7 Chords Alternating
TTITLE3=Go Tell Aunt Rhody 
TTITLE4=Tom Dooley
TTITLE5=G and C Chords Alternating
TTITLE6=G, C and D7 Chords Alternating
TTITLE7=Michael, Row The Boat Ashore
TTITLE8=Boil Them Cabbage Down
TTITLE9=Picking Exercise 1
TTITLE10=The Pinch
TTITLE11=Pinch with alternating bass
TTITLE12=G and D7 pinch exercise
TTITLE13=BTCD with pinch
TTITLE14=Square roll on open G
TTITLE15=GTAR with square roll
TTITLE16=It Ain't Gonna Rain No More
TTITLE17=BTCD with square rolls
TTITLE18=BTCD with melody notes
TTITLE19=GTAR variation on square roll
TTITLE20=GTAR combined square rolls
TTITLE21=GTAR with melody
TTITLE22=BTCD with square and fwd/backward rolls
TTITLE23=Variations on the fwd/back roll
TTITLE24=Fwd/back roll variations with chords
TTITLE25=She'll Be Comin' 'Round The Mountain
TTITLE26=Forward rolls with filler notes
TTITLE27=Fwd roll with chords and filler notes
TTITLE28=Banks of the Ohio with forward roll
TTITLE29=C and G7 chords with rolls
TTITLE30=Handsome Molly
TTITLE31=HM with fwd/backward rolls
TTITLE32=Backward - forward roll
TTITLE33=Using quarter notes
TTITLE34=Mixed eighth and quarter notes
TTITLE35=The Minstrel Roll
TTITLE36=Old Joe Clark
TTITLE37=Cluck Old Hen
TTITLE38=Using the metronome
TTITLE39=Metronome with backbeat
TTITLE40=The Slide
TTITLE41=BTCD with slides
TTITLE42=Old Dan Tucker with slides
TTITLE43=Slide with fwd/back roll
TTITLE44=Georgia Buck with slides, square, fwd/back rolls
TTITLE45=Hammer-on exercise
TTITLE46=Hammer-on Teapot Etude
TTITLE47=Another hammer-on exercise
TTITLE48=Hammer-on with forward roll
TTITLE49=Cumberland Gap with hammer-ons and slides
TTITLE50=Cripple Creek with hammer-ons and slides
TTITLE51=Pull-off exercise
TTITLE52=Pull-offs in a tune
TTITLE53=Chords in the key of C
TTITLE54=New Tiddley Winks Dance (in C)
TTITLE55=Regular music notation: The Easy Jig
EXTD=CD accompanying the book "Banjo For Beginners", by Tony Trischka
EXTT0=
EXTT1=
EXTT2=
EXTT3=
EXTT4=
EXTT5=
EXTT6=
EXTT7=
EXTT8=
EXTT9=
EXTT10=
EXTT11=
EXTT12=
EXTT13=
EXTT14=
EXTT15=
EXTT16=
EXTT17=
EXTT18=
EXTT19=
EXTT20=
EXTT21=
EXTT22=
EXTT23=
EXTT24=
EXTT25=
EXTT26=
EXTT27=
EXTT28=
EXTT29=
EXTT30=
EXTT31=
EXTT32=
EXTT33=
EXTT34=
EXTT35=
EXTT36=
EXTT37=
EXTT38=
EXTT39=
EXTT40=
EXTT41=
EXTT42=
EXTT43=
EXTT44=
EXTT45=
EXTT46=
EXTT47=
EXTT48=
EXTT49=
EXTT50=
EXTT51=
EXTT52=
EXTT53=
EXTT54=
EXTT55=
PLAYORDER=
